<?xml version="1.0" encoding="utf-8"?>
<!-- Generator: Adobe Illustrator 22.0.1, SVG Export Plug-In . SVG Version: 6.00 Build 0)  -->
<svg version="1.1" xmlns="http://www.w3.org/2000/svg" xmlns:xlink="http://www.w3.org/1999/xlink" x="0px" y="0px"
	 viewBox="0 0 24 24" style="enable-background:new 0 0 24 24;" xml:space="preserve">
<style type="text/css">
	.st0{fill:#E74C3C;}
	.st1{fill:#FFFFFF;stroke:#C0392B;stroke-miterlimit:10;}
	.st2{display:none;}
	.st3{font-family:'Exo-Regular';}
	.st4{font-size:8px;}
	.st5{display:inline;fill:#4D1300;}
	.st6{display:none;fill:#4D1300;}
	.st7{font-family:'ForteMT';}
	.st8{font-size:9px;}
	.st9{fill:#4D1300;}
	.st10{display:inline;fill:none;stroke:#000000;stroke-miterlimit:10;}
</style>
<g id="Layer_1">
	<path class="st0" d="M12,2c3.3,0,6,2.7,6,5.9c0,4.5-6,11.1-6,11.1S6,12.4,6,7.9C6,4.7,8.7,2,12,2 M14.1,6 M18.1,10.1 M14.1,14.1
		 M10,10.1 M14.1,6 M20,19c0,2.2-3.6,4-8,4s-8-1.8-8-4c0-1.3,1.2-2.4,3.1-3.2l0.6,0.9C6.7,17.2,6,17.8,6,18.5c0,1.4,2.7,2.5,6,2.5
		s6-1.1,6-2.5c0-0.7-0.7-1.3-1.8-1.8l0.6-0.9C18.8,16.6,20,17.7,20,19z"/>
	<g id="Layer_2">
		<ellipse class="st1" cx="12.1" cy="8" rx="4.1" ry="4"/>
	</g>
	<text transform="matrix(1 0 0 1 10.3125 10.9063)" class="st2 st3 st4">1</text>
	<g class="st2">
		<path class="st5" d="M11.7,7.1l0.1-0.2c0,0-0.1,0-0.2,0.1c-0.2,0.1-0.3,0.1-0.4,0.1c-0.1,0-0.1,0-0.1-0.1C11,6.9,11,6.9,11,6.8
			c0-0.1,0-0.2,0.1-0.3s0.1-0.2,0.1-0.2c0.1-0.1,0.4-0.2,1-0.5l0.1-0.1c0,0,0.1,0,0.1-0.1c0.4-0.2,0.6-0.3,0.7-0.3
			c0.1,0,0.2,0,0.2,0.1c0.1,0.1,0.1,0.1,0.1,0.2c0,0.2-0.1,0.6-0.3,1.2c0,0.1-0.1,0.2-0.1,0.3c0,0.1-0.1,0.2-0.1,0.3
			c0,0.1,0,0.1,0,0.2c-0.1,0.3-0.2,0.6-0.2,0.8c0,0,0,0.1-0.1,0.2s-0.1,0.2-0.1,0.3s0,0.1,0,0.2c-0.2,0.8-0.4,1.2-0.5,1.4
			c0,0.1-0.1,0.1-0.2,0.2c-0.1,0.1-0.2,0.2-0.3,0.2C11.5,11,11.4,11,11.3,11c-0.1,0-0.2,0-0.3,0c-0.2,0-0.3,0-0.4-0.1
			s-0.2-0.2-0.2-0.3c0,0,0-0.1,0-0.1C10.8,9.5,11.2,8.4,11.7,7.1z"/>
	</g>
	<text transform="matrix(1 0 0 1 10.2396 11.0208)" class="st6 st7 st8">1</text>
	<g>
		<path class="st9" d="M12,7.8l0.8-1.7c0,0-0.1,0-0.1,0c-0.2,0-0.5,0.1-0.9,0.2c-0.2,0.1-0.4,0.1-0.5,0.2c-0.1,0-0.2,0.1-0.3,0.1
			c-0.2,0-0.2-0.1-0.2-0.2c0-0.1,0-0.2,0.1-0.4c0.1-0.2,0.2-0.3,0.3-0.5c0.1-0.1,0.1-0.2,0.2-0.2s0.2,0,0.3,0c0.1,0,0.1,0,0.1,0l1,0
			c0.7,0,1.1,0.1,1.4,0.2c0.1,0,0.1,0.1,0.1,0.2c0,0.1-0.1,0.2-0.2,0.5l-0.8,1.7h0.1h0.2h0.1c0.2,0,0.2,0,0.2,0.1
			c0,0.1,0,0.2-0.1,0.3c-0.1,0.1-0.1,0.2-0.2,0.3c-0.2,0.2-0.4,0.3-0.8,0.4l-0.6,1.5c0,0,0,0.1,0,0.1c0,0.1-0.1,0.2-0.1,0.3
			c-0.1,0.1-0.3,0.2-0.5,0.3C11.4,11,11.2,11,11,11c-0.1,0-0.2,0-0.3-0.1s-0.1-0.1-0.1-0.2c0-0.1,0.1-0.3,0.3-0.7c0,0,0,0,0,0
			c0,0,0,0,0,0l0.6-1h-0.1c0,0-0.1,0-0.2,0c-0.3,0-0.4-0.1-0.4-0.3c0-0.1,0-0.2,0.1-0.3C11,8.1,11.1,8,11.2,7.9c0,0,0.2-0.1,0.4-0.1
			C11.7,7.8,11.9,7.8,12,7.8z"/>
	</g>
	<g class="st2">
		<path class="st5" d="M12.6,6.8l-0.3,0.3l0,0c0.4-0.3,0.7-0.4,1-0.4c0.2,0,0.4,0.1,0.6,0.2C14,7,14.2,7.2,14.3,7.3
			c0.1,0.2,0.1,0.4,0.1,0.6c0,0.3,0,0.6-0.1,0.9c-0.1,0.3-0.2,0.6-0.4,0.9c-0.2,0.3-0.4,0.5-0.6,0.7c-0.2,0.2-0.4,0.3-0.7,0.5
			S12,11,11.7,11c-0.5,0-1-0.1-1.2-0.3s-0.4-0.6-0.4-1c0-0.4,0.1-0.9,0.4-1.4S11,7,11.6,6.1c0.2-0.3,0.4-0.6,0.5-0.7
			c0.1-0.1,0.1-0.1,0.2-0.2s0.2-0.1,0.3-0.1c0.2,0,0.4-0.1,0.7-0.1c0.3,0,0.5,0.1,0.5,0.3c0,0.1-0.1,0.2-0.3,0.4
			c-0.1,0.1-0.3,0.3-0.6,0.7L12.6,6.8z M12.1,7.6c-0.1,0-0.2,0.1-0.3,0.2s-0.2,0.3-0.3,0.5c-0.1,0.2-0.1,0.4-0.1,0.5
			c0,0.2,0,0.5,0.1,0.7c0.1,0.2,0.2,0.4,0.4,0.5c0.2,0.1,0.3,0.2,0.5,0.2c0.1,0,0.2,0,0.2-0.1c0.1-0.1,0.2-0.3,0.2-0.5
			c0.1-0.2,0.1-0.5,0.1-0.8c0-0.2,0-0.5-0.1-0.6c-0.1-0.2-0.2-0.3-0.3-0.4C12.4,7.7,12.2,7.6,12.1,7.6z"/>
	</g>
	<g class="st2">
		<path class="st5" d="M12.1,6.4L11.8,7l0,0c0.2-0.1,0.4-0.2,0.6-0.2s0.3-0.1,0.5-0.1c0.4,0,0.7,0.1,0.9,0.3
			c0.2,0.2,0.3,0.5,0.3,0.8c0,0.2,0,0.3-0.1,0.5c0,0.2-0.1,0.4-0.2,0.6c-0.1,0.2-0.2,0.4-0.3,0.6c-0.1,0.2-0.3,0.4-0.5,0.6
			c-0.3,0.3-0.6,0.5-0.9,0.7C11.8,11,11.6,11,11.4,11c-0.2,0-0.3,0-0.5-0.1c-0.2-0.1-0.3-0.2-0.4-0.3c-0.2-0.2-0.3-0.5-0.3-0.9
			c0-0.5,0.2-0.9,0.5-1.2c0.1-0.2,0.3-0.3,0.5-0.4C11.3,8,11.5,8,11.6,8c0.2,0,0.2,0,0.2,0.1v0c-0.1,0.1-0.2,0.3-0.3,0.4
			c-0.1,0.1-0.1,0.2-0.2,0.4c-0.1,0.3-0.2,0.6-0.2,1c0,0.3,0.1,0.5,0.2,0.5c0.2,0,0.3-0.1,0.5-0.3c0.2-0.2,0.4-0.5,0.5-0.8
			s0.2-0.6,0.2-0.8c0-0.3-0.1-0.5-0.2-0.7c-0.1-0.1-0.3-0.2-0.6-0.2c-0.2,0-0.4,0-0.6,0.1c-0.1,0-0.2,0-0.2,0c-0.1,0-0.2,0-0.2-0.1
			c-0.1-0.1-0.1-0.1-0.1-0.2c0-0.1,0-0.2,0.1-0.5c0.1-0.4,0.3-0.8,0.4-1.1l0-0.1c0,0,0-0.1,0.1-0.2c0.1-0.2,0.2-0.3,0.2-0.4
			c0.1-0.1,0.2-0.1,0.4-0.1c0.6,0,1,0,1.3,0c0.1,0,0.1,0,0.2,0h0.1c0.2,0,0.4,0,0.4,0.1c0.1,0,0.1,0.1,0.1,0.1c0,0,0,0.1-0.1,0.2
			c-0.1,0.1-0.1,0.2-0.2,0.3c-0.2,0.2-0.3,0.3-0.5,0.4c-0.2,0.1-0.3,0.1-0.5,0.1c-0.1,0-0.2,0-0.3,0C12.2,6.4,12.2,6.4,12.1,6.4
			L12.1,6.4z"/>
	</g>
	<g class="st2">
		<path class="st5" d="M11.8,8.9l-0.3,0c-0.4,0-0.7,0-0.8,0c-0.2,0-0.3,0-0.4,0c-0.1,0-0.2-0.1-0.2-0.1c0,0-0.1-0.1-0.1-0.2
			c0-0.1,0-0.2,0.1-0.3s0.1-0.4,0.2-0.7c0.1-0.2,0.2-0.4,0.2-0.6c0.2-0.4,0.3-0.7,0.4-0.9C10.9,6.1,11,6.1,11,6c0,0,0-0.1,0.1-0.1
			c0.1-0.2,0.2-0.3,0.4-0.4c0.3-0.2,0.6-0.3,0.9-0.3c0.2,0,0.3,0.1,0.3,0.2c0,0.1-0.3,0.6-0.8,1.4c-0.3,0.4-0.5,0.7-0.7,1.1l1-0.1
			c0.1-0.2,0.2-0.4,0.3-0.6c0.1-0.2,0.3-0.3,0.5-0.3s0.4-0.1,0.6-0.1c0.1,0,0.2,0,0.3,0c0.1,0,0.1,0.1,0.1,0.1c0,0.1,0,0.2-0.1,0.3
			s-0.1,0.3-0.2,0.5l0,0.1c0.1,0,0.1,0,0.1,0c0,0,0,0,0.1,0c0,0,0,0,0.1,0c0,0,0,0,0.1,0c0.1,0,0.1,0,0.1,0.1c0,0,0,0,0,0
			c-0.1,0.1-0.1,0.2-0.2,0.4c-0.1,0.1-0.2,0.2-0.3,0.3c-0.1,0.1-0.1,0.1-0.2,0.2C13.2,9,13.1,9.4,12.9,10c0,0,0,0.1,0,0.1
			c0,0,0,0.1,0,0.1c0,0.2-0.1,0.4-0.2,0.5c-0.2,0.1-0.4,0.2-0.6,0.3S11.8,11,11.6,11c-0.1,0-0.2,0-0.3-0.1s-0.1-0.1-0.1-0.2
			c0-0.1,0-0.2,0.1-0.4c0.1-0.2,0.2-0.4,0.3-0.7C11.6,9.3,11.7,9.1,11.8,8.9z"/>
	</g>
	<g class="st2">
		<path class="st5" d="M11.3,10.5L11.3,10.5c0.1,0,0.2,0,0.4-0.1c0.1-0.1,0.3-0.2,0.4-0.4c0.2-0.2,0.3-0.4,0.4-0.6
			c0.1-0.2,0.2-0.4,0.2-0.6c0-0.4-0.2-0.6-0.6-0.7C12,8,12,8,11.9,8s-0.1-0.1-0.1-0.1c0-0.1,0.1-0.1,0.2-0.3
			c0.2-0.2,0.4-0.4,0.5-0.6c0.1-0.2,0.2-0.4,0.2-0.7c0-0.2,0-0.4-0.1-0.4c-0.1,0-0.2,0.1-0.3,0.2S12.1,6.5,12,6.7
			c-0.1,0.2-0.2,0.4-0.2,0.6c0,0.1,0,0.1-0.1,0.1c0,0,0,0-0.1,0c-0.1,0-0.2-0.1-0.3-0.2C11.1,7,11,6.8,11,6.6c0-0.2,0.1-0.4,0.3-0.7
			c0.2-0.2,0.4-0.4,0.7-0.5s0.6-0.2,0.9-0.2c0.2,0,0.5,0,0.7,0.1s0.4,0.2,0.5,0.4c0.1,0.2,0.2,0.4,0.2,0.6c0,0.4-0.2,0.7-0.5,0.9
			c-0.2,0.1-0.4,0.2-0.7,0.3v0c0.4,0,0.7,0.1,0.9,0.3s0.3,0.4,0.3,0.7c0,0.1,0,0.3-0.1,0.4c-0.1,0.2-0.2,0.3-0.3,0.5
			c-0.1,0.2-0.3,0.3-0.4,0.5c-0.4,0.4-0.7,0.7-1.1,0.9c-0.4,0.2-0.8,0.3-1.2,0.3c-0.4,0-0.7-0.1-0.9-0.3C10.1,10.6,10,10.3,10,10
			c0-0.2,0.1-0.5,0.2-0.7c0.2-0.2,0.4-0.4,0.6-0.6s0.5-0.2,0.8-0.2c0.1,0,0.2,0,0.2,0.1c0,0,0,0.1-0.1,0.2c0,0,0,0,0,0c0,0,0,0,0,0
			c-0.1,0.1-0.2,0.3-0.3,0.5c-0.1,0.2-0.1,0.4-0.1,0.6C11.2,10.1,11.3,10.3,11.3,10.5z"/>
	</g>
	<g class="st2">
		<path class="st5" d="M11.4,8.8L11.4,8.8c0.3-0.4,0.4-0.6,0.5-0.8s0.1-0.3,0.2-0.5c0.1-0.2,0.1-0.5,0.1-0.7c0-0.2,0-0.4-0.1-0.6
			C12.1,6.2,12,6.1,11.8,6c-0.2,0.3-0.3,0.7-0.3,1.1c0,0.2,0,0.4,0.1,0.5c0,0.1,0,0.1,0,0.1c0,0.1,0,0.1-0.1,0.1
			c-0.1,0-0.2,0-0.3-0.1c-0.1-0.1-0.2-0.1-0.3-0.2c-0.1-0.1-0.1-0.2-0.2-0.3S10.6,7,10.6,6.9c0-0.2,0-0.4,0.1-0.6
			c0.1-0.2,0.2-0.4,0.4-0.5c0.2-0.1,0.4-0.3,0.6-0.3c0.2-0.1,0.5-0.1,0.7-0.1c0.3,0,0.5,0.1,0.7,0.2c0.2,0.1,0.4,0.3,0.5,0.5
			c0.1,0.2,0.2,0.4,0.2,0.6c0,0.2,0,0.4-0.1,0.6c-0.1,0.2-0.2,0.4-0.3,0.7c-0.1,0.2-0.3,0.5-0.5,0.8c-0.2,0.3-0.5,0.6-0.8,0.9
			L12,9.5l-0.1,0.1c0.1,0,0.3,0.1,0.5,0.1c0.2,0,0.4,0,0.6,0c0.2,0,0.4-0.1,0.5-0.1c0.1,0,0.1,0,0.2,0c0,0,0,0,0,0
			c0,0.1-0.1,0.3-0.2,0.5c-0.1,0.2-0.3,0.4-0.4,0.6c-0.2,0.1-0.3,0.3-0.6,0.3C12.3,11,12.1,11,11.7,11c-0.4,0-0.8-0.1-1.1-0.2
			c-0.3-0.1-0.4-0.3-0.4-0.4c0-0.1,0.2-0.3,0.5-0.7c0.2-0.2,0.4-0.5,0.6-0.7c0,0,0,0,0-0.1c0,0,0,0,0-0.1C11.3,9,11.4,8.9,11.4,8.8
			L11.4,8.8z"/>
	</g>
	<text transform="matrix(1 0 0 1 5.9896 13.0208)" class="st6 st7 st8">2</text>
	<text transform="matrix(1 0 0 1 5.7396 13.0208)" class="st6 st7 st8">3</text>
	<text transform="matrix(1 0 0 1 6.7188 13.0208)" class="st6 st7 st8">4</text>
	<text transform="matrix(1 0 0 1 5.8646 13.0208)" class="st6 st7 st8">5</text>
	<text transform="matrix(1 0 0 1 5.8646 13.0208)" class="st6 st7 st8">6</text>
	<text transform="matrix(1 0 0 1 6.2813 13.0208)" class="st6 st7 st8">7</text>
</g>
<g id="Layer_3" class="st2">
	<path class="st10" d="M16.1,8c0-2.2-1.8-4.1-4.1-4.1"/>
	<path class="st10" d="M12,12.1c2.2,0,4.1-1.8,4.1-4.1"/>
	<path class="st10" d="M7.9,8c0,2.2,1.8,4.1,4.1,4.1"/>
	<path class="st10" d="M12,3.9C9.8,3.9,7.9,5.8,7.9,8"/>
</g>
</svg>
